<svg xmlns="http://www.w3.org/2000/svg" viewBox="0 0 256 256" role="img" aria-labelledby="title desc">
  <title id="title">Reading Quest Logo</title>
  <desc id="desc">An open book with segmented text and a learning path.</desc>
  <defs>
    <linearGradient id="bg" x1="32" y1="24" x2="224" y2="232" gradientUnits="userSpaceOnUse">
      <stop offset="0" stop-color="#22c783"/>
      <stop offset="1" stop-color="#159bdf"/>
    </linearGradient>
    <linearGradient id="page" x1="58" y1="70" x2="198" y2="188" gradientUnits="userSpaceOnUse">
      <stop offset="0" stop-color="#ffffff"/>
      <stop offset="1" stop-color="#eef8ff"/>
    </linearGradient>
    <filter id="shadow" x="24" y="32" width="208" height="184" color-interpolation-filters="sRGB" filterUnits="userSpaceOnUse">
      <feDropShadow dx="0" dy="14" stdDeviation="12" flood-color="#17324a" flood-opacity=".22"/>
    </filter>
  </defs>
  <rect width="256" height="256" rx="56" fill="#f5f8fb"/>
  <path d="M128 18 220 71v106l-92 53-92-53V71l92-53Z" fill="url(#bg)"/>
  <path d="M128 18 220 71v106l-92 53-92-53V71l92-53Z" fill="none" stroke="#ffffff" stroke-opacity=".7" stroke-width="8"/>
  <g filter="url(#shadow)">
    <path d="M72 77c0-8 7-14 15-12 18 3 31 9 41 19 10-10 23-16 41-19 8-2 15 4 15 12v99c0 6-5 11-11 12-17 2-31 8-42 18-2 2-4 2-6 0-11-10-25-16-42-18-6-1-11-6-11-12V77Z" fill="url(#page)"/>
    <path d="M128 84v119" stroke="#c7d6e4" stroke-width="5" stroke-linecap="round"/>
    <path d="M90 101h23M90 121h28M90 141h20" stroke="#4b5c70" stroke-width="8" stroke-linecap="round"/>
    <path d="M144 101h25M144 121h18M144 141h24" stroke="#4b5c70" stroke-width="8" stroke-linecap="round"/>
    <path d="M83 168c19 3 33 9 45 20 12-11 26-17 45-20" fill="none" stroke="#d4e0eb" stroke-width="7" stroke-linecap="round"/>
  </g>
  <path d="M87 56c16-12 29-17 41-17s25 5 41 17" fill="none" stroke="#ffcf4d" stroke-width="10" stroke-linecap="round"/>
  <circle cx="87" cy="56" r="10" fill="#ffcf4d"/>
  <circle cx="128" cy="39" r="10" fill="#ffcf4d"/>
  <circle cx="169" cy="56" r="10" fill="#ffcf4d"/>
  <path d="M186 50v34" stroke="#243042" stroke-width="8" stroke-linecap="round"/>
  <path d="M186 52h25l-9 12 9 12h-25V52Z" fill="#ff6b6b"/>
</svg>
